<svg width="26" height="26" viewBox="0 0 26 26" fill="none" xmlns="http://www.w3.org/2000/svg">
<mask id="mask0_45_251" style="mask-type:alpha" maskUnits="userSpaceOnUse" x="0" y="0" width="26" height="26">
<rect x="0.177246" y="0.518555" width="25.3001" height="25.3001" fill="#00387F"/>
</mask>
<g mask="url(#mask0_45_251)">
<path d="M3.3396 22.6563V7.89784H7.55629V3.68115H18.098V12.1145H22.3147V22.6563H13.8813V18.4396H11.773V22.6563H3.3396ZM5.44795 20.5479H7.55629V18.4396H5.44795V20.5479ZM5.44795 16.3312H7.55629V14.2229H5.44795V16.3312ZM5.44795 12.1145H7.55629V10.0062H5.44795V12.1145ZM9.66464 16.3312H11.773V14.2229H9.66464V16.3312ZM9.66464 12.1145H11.773V10.0062H9.66464V12.1145ZM9.66464 7.89784H11.773V5.7895H9.66464V7.89784ZM13.8813 16.3312H15.9897V14.2229H13.8813V16.3312ZM13.8813 12.1145H15.9897V10.0062H13.8813V12.1145ZM13.8813 7.89784H15.9897V5.7895H13.8813V7.89784ZM18.098 20.5479H20.2064V18.4396H18.098V20.5479ZM18.098 16.3312H20.2064V14.2229H18.098V16.3312Z" fill="#14367B"/>
</g>
</svg>
