<svg width="10" height="8" viewBox="0 0 10 8" fill="none" xmlns="http://www.w3.org/2000/svg">
<path d="M4.225 5.75C4.43333 5.95833 4.69583 6.05625 5.0125 6.04375C5.32917 6.03125 5.55833 5.91667 5.7 5.7L8.5 1.5L4.3 4.3C4.08333 4.45 3.96458 4.67708 3.94375 4.98125C3.92292 5.28542 4.01667 5.54167 4.225 5.75ZM1.55 8C1.36667 8 1.19792 7.96042 1.04375 7.88125C0.889583 7.80208 0.766667 7.68333 0.675 7.525C0.458333 7.13333 0.291667 6.72708 0.175 6.30625C0.0583333 5.88542 0 5.45 0 5C0 4.30833 0.13125 3.65833 0.39375 3.05C0.65625 2.44167 1.0125 1.9125 1.4625 1.4625C1.9125 1.0125 2.44167 0.65625 3.05 0.39375C3.65833 0.13125 4.30833 0 5 0C5.68333 0 6.325 0.129167 6.925 0.3875C7.525 0.645833 8.05 0.997917 8.5 1.44375C8.95 1.88958 9.30833 2.41042 9.575 3.00625C9.84167 3.60208 9.97917 4.24167 9.9875 4.925C9.99583 5.38333 9.94375 5.83125 9.83125 6.26875C9.71875 6.70625 9.54583 7.125 9.3125 7.525C9.22083 7.68333 9.09792 7.80208 8.94375 7.88125C8.78958 7.96042 8.62083 8 8.4375 8H1.55Z" fill="#67CCD1"/>
</svg>
