<svg width="18" height="18" viewBox="0 0 18 18" fill="none" xmlns="http://www.w3.org/2000/svg">
<path d="M12.6 11.7C11.85 11.7 11.2125 11.4375 10.6875 10.9125C10.1625 10.3875 9.9 9.75 9.9 9C9.9 8.25 10.1625 7.6125 10.6875 7.0875C11.2125 6.5625 11.85 6.3 12.6 6.3C13.35 6.3 13.9875 6.5625 14.5125 7.0875C15.0375 7.6125 15.3 8.25 15.3 9C15.3 9.75 15.0375 10.3875 14.5125 10.9125C13.9875 11.4375 13.35 11.7 12.6 11.7ZM12.6 9.9C12.855 9.9 13.0688 9.81375 13.2413 9.64125C13.4138 9.46875 13.5 9.255 13.5 9C13.5 8.745 13.4138 8.53125 13.2413 8.35875C13.0688 8.18625 12.855 8.1 12.6 8.1C12.345 8.1 12.1313 8.18625 11.9588 8.35875C11.7863 8.53125 11.7 8.745 11.7 9C11.7 9.255 11.7863 9.46875 11.9588 9.64125C12.1313 9.81375 12.345 9.9 12.6 9.9ZM7.2 18V15.39C7.2 15.075 7.275 14.7788 7.425 14.5013C7.575 14.2238 7.785 14.0025 8.055 13.8375C8.535 13.5525 9.04125 13.3163 9.57375 13.1288C10.1063 12.9413 10.65 12.8025 11.205 12.7125L12.6 14.4L13.995 12.7125C14.55 12.8025 15.09 12.9413 15.615 13.1288C16.14 13.3163 16.6425 13.5525 17.1225 13.8375C17.3925 14.0025 17.6063 14.2238 17.7638 14.5013C17.9213 14.7788 18 15.075 18 15.39V18H7.2ZM8.9775 16.2H11.745L10.53 14.715C10.26 14.79 9.9975 14.8875 9.7425 15.0075C9.4875 15.1275 9.2325 15.255 8.9775 15.39V16.2ZM13.455 16.2H16.2V15.39C15.96 15.24 15.7125 15.1088 15.4575 14.9963C15.2025 14.8838 14.94 14.79 14.67 14.715L13.455 16.2ZM1.8 16.2C1.305 16.2 0.88125 16.0238 0.52875 15.6713C0.17625 15.3188 0 14.895 0 14.4V1.8C0 1.305 0.17625 0.88125 0.52875 0.52875C0.88125 0.17625 1.305 0 1.8 0H14.4C14.895 0 15.3188 0.17625 15.6713 0.52875C16.0238 0.88125 16.2 1.305 16.2 1.8V6.3C15.96 6 15.6975 5.715 15.4125 5.445C15.1275 5.175 14.79 4.995 14.4 4.905V1.8H1.8V14.4H5.535C5.49 14.565 5.45625 14.73 5.43375 14.895C5.41125 15.06 5.4 15.225 5.4 15.39V16.2H1.8ZM3.6 5.4H9.9C10.29 5.1 10.7175 4.875 11.1825 4.725C11.6475 4.575 12.12 4.5 12.6 4.5V3.6H3.6V5.4ZM3.6 9H8.1C8.1 8.685 8.13375 8.3775 8.20125 8.0775C8.26875 7.7775 8.3625 7.485 8.4825 7.2H3.6V9ZM3.6 12.6H6.705C6.87 12.465 7.04625 12.345 7.23375 12.24C7.42125 12.135 7.6125 12.0375 7.8075 11.9475V10.8H3.6V12.6ZM1.8 14.4V1.8V4.8825V4.5V14.4Z" fill="#14367B"/>
</svg>
