<svg width="18" height="17" viewBox="0 0 18 17" fill="none" xmlns="http://www.w3.org/2000/svg">
<path d="M15.1589 1.70656H13.4875V0.87086C13.4875 0.649218 13.3994 0.436653 13.2427 0.279928C13.086 0.123203 12.8734 0.0351563 12.6518 0.0351562C12.4301 0.0351563 12.2176 0.123203 12.0608 0.279928C11.9041 0.436653 11.8161 0.649218 11.8161 0.87086V1.70656H6.80183V0.87086C6.80183 0.649218 6.71379 0.436653 6.55706 0.279928C6.40034 0.123203 6.18777 0.0351563 5.96613 0.0351562C5.74449 0.0351563 5.53192 0.123203 5.3752 0.279928C5.21847 0.436653 5.13043 0.649218 5.13043 0.87086V1.70656H3.45902C2.79409 1.70656 2.1564 1.97071 1.68622 2.44088C1.21605 2.91106 0.951904 3.54875 0.951904 4.21368V14.2421C0.951904 14.9071 1.21605 15.5447 1.68622 16.0149C2.1564 16.4851 2.79409 16.7492 3.45902 16.7492H15.1589C15.8238 16.7492 16.4615 16.4851 16.9317 16.0149C17.4018 15.5447 17.666 14.9071 17.666 14.2421V4.21368C17.666 3.54875 17.4018 2.91106 16.9317 2.44088C16.4615 1.97071 15.8238 1.70656 15.1589 1.70656V1.70656ZM15.9946 14.2421C15.9946 14.4638 15.9065 14.6763 15.7498 14.8331C15.5931 14.9898 15.3805 15.0778 15.1589 15.0778H3.45902C3.23737 15.0778 3.02481 14.9898 2.86808 14.8331C2.71136 14.6763 2.62331 14.4638 2.62331 14.2421V8.3922H15.9946V14.2421ZM15.9946 6.72079H2.62331V4.21368C2.62331 3.99203 2.71136 3.77947 2.86808 3.62275C3.02481 3.46602 3.23737 3.37797 3.45902 3.37797H5.13043V4.21368C5.13043 4.43532 5.21847 4.64788 5.3752 4.80461C5.53192 4.96133 5.74449 5.04938 5.96613 5.04938C6.18777 5.04938 6.40034 4.96133 6.55706 4.80461C6.71379 4.64788 6.80183 4.43532 6.80183 4.21368V3.37797H11.8161V4.21368C11.8161 4.43532 11.9041 4.64788 12.0608 4.80461C12.2176 4.96133 12.4301 5.04938 12.6518 5.04938C12.8734 5.04938 13.086 4.96133 13.2427 4.80461C13.3994 4.64788 13.4875 4.43532 13.4875 4.21368V3.37797H15.1589C15.3805 3.37797 15.5931 3.46602 15.7498 3.62275C15.9065 3.77947 15.9946 3.99203 15.9946 4.21368V6.72079Z" fill="#1A8DC2"/>
</svg>
