<svg width="16" height="15" viewBox="0 0 16 15" fill="none" xmlns="http://www.w3.org/2000/svg">
<path d="M8 15C6.9625 15 5.9875 14.8031 5.075 14.4094C4.1625 14.0156 3.36875 13.4813 2.69375 12.8063C2.01875 12.1313 1.48438 11.3375 1.09063 10.425C0.696875 9.5125 0.5 8.5375 0.5 7.5C0.5 6.4625 0.696875 5.4875 1.09063 4.575C1.48438 3.6625 2.01875 2.86875 2.69375 2.19375C3.36875 1.51875 4.1625 0.984375 5.075 0.590625C5.9875 0.196875 6.9625 0 8 0C9.0375 0 10.0125 0.196875 10.925 0.590625C11.8375 0.984375 12.6313 1.51875 13.3063 2.19375C13.9813 2.86875 14.5156 3.6625 14.9094 4.575C15.3031 5.4875 15.5 6.4625 15.5 7.5V8.5875C15.5 9.325 15.2469 9.95312 14.7406 10.4719C14.2344 10.9906 13.6125 11.25 12.875 11.25C12.4375 11.25 12.025 11.1562 11.6375 10.9688C11.25 10.7812 10.925 10.5125 10.6625 10.1625C10.3 10.525 9.89062 10.7969 9.43438 10.9781C8.97813 11.1594 8.5 11.25 8 11.25C6.9625 11.25 6.07812 10.8844 5.34688 10.1531C4.61563 9.42188 4.25 8.5375 4.25 7.5C4.25 6.4625 4.61563 5.57812 5.34688 4.84688C6.07812 4.11563 6.9625 3.75 8 3.75C9.0375 3.75 9.92188 4.11563 10.6531 4.84688C11.3844 5.57812 11.75 6.4625 11.75 7.5V8.5875C11.75 8.9125 11.8563 9.1875 12.0688 9.4125C12.2812 9.6375 12.55 9.75 12.875 9.75C13.2 9.75 13.4688 9.6375 13.6813 9.4125C13.8938 9.1875 14 8.9125 14 8.5875V7.5C14 5.825 13.4188 4.40625 12.2563 3.24375C11.0938 2.08125 9.675 1.5 8 1.5C6.325 1.5 4.90625 2.08125 3.74375 3.24375C2.58125 4.40625 2 5.825 2 7.5C2 9.175 2.58125 10.5938 3.74375 11.7563C4.90625 12.9188 6.325 13.5 8 13.5H11.75V15H8ZM8 9.75C8.625 9.75 9.15625 9.53125 9.59375 9.09375C10.0312 8.65625 10.25 8.125 10.25 7.5C10.25 6.875 10.0312 6.34375 9.59375 5.90625C9.15625 5.46875 8.625 5.25 8 5.25C7.375 5.25 6.84375 5.46875 6.40625 5.90625C5.96875 6.34375 5.75 6.875 5.75 7.5C5.75 8.125 5.96875 8.65625 6.40625 9.09375C6.84375 9.53125 7.375 9.75 8 9.75Z" fill="#7F7F7F"/>
</svg>
