<svg width="21" height="21" viewBox="0 0 21 21" fill="none" xmlns="http://www.w3.org/2000/svg">
<path d="M16.9946 7.27568L11.9804 2.87988C11.5208 2.46875 10.9257 2.24146 10.309 2.24146C9.69232 2.24146 9.09726 2.46875 8.63761 2.87988L3.62338 7.27568C3.35793 7.51308 3.14611 7.80431 3.00201 8.12997C2.85791 8.45564 2.78485 8.80826 2.78768 9.16437V16.4684C2.78768 17.1334 3.05182 17.771 3.52199 18.2412C3.99217 18.7114 4.62986 18.9755 5.29479 18.9755H15.3232C15.9882 18.9755 16.6259 18.7114 17.096 18.2412C17.5662 17.771 17.8304 17.1334 17.8304 16.4684V9.15601C17.832 8.80131 17.7584 8.4503 17.6143 8.12616C17.4702 7.80202 17.259 7.51215 16.9946 7.27568ZM11.9804 17.3041H8.63761V13.1256C8.63761 12.904 8.72565 12.6914 8.88238 12.5347C9.0391 12.378 9.25167 12.2899 9.47331 12.2899H11.1447C11.3664 12.2899 11.5789 12.378 11.7356 12.5347C11.8924 12.6914 11.9804 12.904 11.9804 13.1256V17.3041ZM16.1589 16.4684C16.1589 16.6901 16.0709 16.9026 15.9142 17.0594C15.7574 17.2161 15.5449 17.3041 15.3232 17.3041H13.6518V13.1256C13.6518 12.4607 13.3877 11.823 12.9175 11.3528C12.4473 10.8826 11.8096 10.6185 11.1447 10.6185H9.47331C8.80838 10.6185 8.17069 10.8826 7.70051 11.3528C7.23034 11.823 6.9662 12.4607 6.9662 13.1256V17.3041H5.29479C5.07315 17.3041 4.86058 17.2161 4.70386 17.0594C4.54713 16.9026 4.45909 16.6901 4.45909 16.4684V9.15601C4.45924 9.03736 4.48465 8.92009 4.53364 8.81202C4.58264 8.70395 4.65408 8.60755 4.74322 8.52924L9.75745 4.14179C9.90996 4.00781 10.106 3.93392 10.309 3.93392C10.512 3.93392 10.7081 4.00781 10.8606 4.14179L15.8748 8.52924C15.9639 8.60755 16.0354 8.70395 16.0844 8.81202C16.1334 8.92009 16.1588 9.03736 16.1589 9.15601V16.4684Z" fill="white"/>
</svg>
