<svg width="21" height="21" viewBox="0 0 21 21" fill="none" xmlns="http://www.w3.org/2000/svg">
<path d="M8.63728 11.6478H3.62306C3.40142 11.6478 3.18885 11.7359 3.03213 11.8926C2.8754 12.0493 2.78735 12.2619 2.78735 12.4835V17.4977C2.78735 17.7194 2.8754 17.9319 3.03213 18.0887C3.18885 18.2454 3.40142 18.3334 3.62306 18.3334H8.63728C8.85892 18.3334 9.07149 18.2454 9.22821 18.0887C9.38494 17.9319 9.47299 17.7194 9.47299 17.4977V12.4835C9.47299 12.2619 9.38494 12.0493 9.22821 11.8926C9.07149 11.7359 8.85892 11.6478 8.63728 11.6478ZM7.80158 16.662H4.45876V13.3192H7.80158V16.662ZM16.9943 3.29077H11.9801C11.7585 3.29077 11.5459 3.37882 11.3892 3.53554C11.2324 3.69227 11.1444 3.90483 11.1444 4.12648V9.1407C11.1444 9.36234 11.2324 9.57491 11.3892 9.73163C11.5459 9.88836 11.7585 9.9764 11.9801 9.9764H16.9943C17.216 9.9764 17.4285 9.88836 17.5853 9.73163C17.742 9.57491 17.83 9.36234 17.83 9.1407V4.12648C17.83 3.90483 17.742 3.69227 17.5853 3.53554C17.4285 3.37882 17.216 3.29077 16.9943 3.29077V3.29077ZM16.1586 8.305H12.8158V4.96218H16.1586V8.305ZM16.9943 14.1549H15.3229V12.4835C15.3229 12.2619 15.2349 12.0493 15.0781 11.8926C14.9214 11.7359 14.7089 11.6478 14.4872 11.6478C14.2656 11.6478 14.053 11.7359 13.8963 11.8926C13.7396 12.0493 13.6515 12.2619 13.6515 12.4835V14.1549H11.9801C11.7585 14.1549 11.5459 14.243 11.3892 14.3997C11.2324 14.5564 11.1444 14.769 11.1444 14.9906C11.1444 15.2123 11.2324 15.4248 11.3892 15.5816C11.5459 15.7383 11.7585 15.8263 11.9801 15.8263H13.6515V17.4977C13.6515 17.7194 13.7396 17.9319 13.8963 18.0887C14.053 18.2454 14.2656 18.3334 14.4872 18.3334C14.7089 18.3334 14.9214 18.2454 15.0781 18.0887C15.2349 17.9319 15.3229 17.7194 15.3229 17.4977V15.8263H16.9943C17.216 15.8263 17.4285 15.7383 17.5853 15.5816C17.742 15.4248 17.83 15.2123 17.83 14.9906C17.83 14.769 17.742 14.5564 17.5853 14.3997C17.4285 14.243 17.216 14.1549 16.9943 14.1549ZM8.63728 3.29077H3.62306C3.40142 3.29077 3.18885 3.37882 3.03213 3.53554C2.8754 3.69227 2.78735 3.90483 2.78735 4.12648V9.1407C2.78735 9.36234 2.8754 9.57491 3.03213 9.73163C3.18885 9.88836 3.40142 9.9764 3.62306 9.9764H8.63728C8.85892 9.9764 9.07149 9.88836 9.22821 9.73163C9.38494 9.57491 9.47299 9.36234 9.47299 9.1407V4.12648C9.47299 3.90483 9.38494 3.69227 9.22821 3.53554C9.07149 3.37882 8.85892 3.29077 8.63728 3.29077V3.29077ZM7.80158 8.305H4.45876V4.96218H7.80158V8.305Z" fill="#1A8DC2"/>
</svg>
