<svg width="12" height="12" viewBox="0 0 16 16" fill="none" xmlns="http://www.w3.org/2000/svg">
<path d="M6.63728 8.64781H1.62306C1.40142 8.64781 1.18885 8.73586 1.03213 8.89258C0.875401 9.04931 0.787354 9.26187 0.787354 9.48352V14.4977C0.787354 14.7194 0.875401 14.9319 1.03213 15.0887C1.18885 15.2454 1.40142 15.3334 1.62306 15.3334H6.63728C6.85892 15.3334 7.07149 15.2454 7.22821 15.0887C7.38494 14.9319 7.47299 14.7194 7.47299 14.4977V9.48352C7.47299 9.26187 7.38494 9.04931 7.22821 8.89258C7.07149 8.73586 6.85892 8.64781 6.63728 8.64781ZM5.80158 13.662H2.45876V10.3192H5.80158V13.662ZM14.9943 0.290771H9.9801C9.75846 0.290771 9.54589 0.378819 9.38917 0.535544C9.23244 0.692268 9.14439 0.904833 9.14439 1.12648V6.1407C9.14439 6.36234 9.23244 6.57491 9.38917 6.73163C9.54589 6.88836 9.75846 6.9764 9.9801 6.9764H14.9943C15.216 6.9764 15.4285 6.88836 15.5853 6.73163C15.742 6.57491 15.83 6.36234 15.83 6.1407V1.12648C15.83 0.904833 15.742 0.692268 15.5853 0.535544C15.4285 0.378819 15.216 0.290771 14.9943 0.290771V0.290771ZM14.1586 5.305H10.8158V1.96218H14.1586V5.305ZM14.9943 11.1549H13.3229V9.48352C13.3229 9.26187 13.2349 9.04931 13.0781 8.89258C12.9214 8.73586 12.7089 8.64781 12.4872 8.64781C12.2656 8.64781 12.053 8.73586 11.8963 8.89258C11.7396 9.04931 11.6515 9.26187 11.6515 9.48352V11.1549H9.9801C9.75846 11.1549 9.54589 11.243 9.38917 11.3997C9.23244 11.5564 9.14439 11.769 9.14439 11.9906C9.14439 12.2123 9.23244 12.4248 9.38917 12.5816C9.54589 12.7383 9.75846 12.8263 9.9801 12.8263H11.6515V14.4977C11.6515 14.7194 11.7396 14.9319 11.8963 15.0887C12.053 15.2454 12.2656 15.3334 12.4872 15.3334C12.7089 15.3334 12.9214 15.2454 13.0781 15.0887C13.2349 14.9319 13.3229 14.7194 13.3229 14.4977V12.8263H14.9943C15.216 12.8263 15.4285 12.7383 15.5853 12.5816C15.742 12.4248 15.83 12.2123 15.83 11.9906C15.83 11.769 15.742 11.5564 15.5853 11.3997C15.4285 11.243 15.216 11.1549 14.9943 11.1549ZM6.63728 0.290771H1.62306C1.40142 0.290771 1.18885 0.378819 1.03213 0.535544C0.875401 0.692268 0.787354 0.904833 0.787354 1.12648V6.1407C0.787354 6.36234 0.875401 6.57491 1.03213 6.73163C1.18885 6.88836 1.40142 6.9764 1.62306 6.9764H6.63728C6.85892 6.9764 7.07149 6.88836 7.22821 6.73163C7.38494 6.57491 7.47299 6.36234 7.47299 6.1407V1.12648C7.47299 0.904833 7.38494 0.692268 7.22821 0.535544C7.07149 0.378819 6.85892 0.290771 6.63728 0.290771V0.290771ZM5.80158 5.305H2.45876V1.96218H5.80158V5.305Z" fill="#FFFFFF"/>
</svg>
