<svg width="18" height="9" viewBox="0 0 18 9" fill="none" xmlns="http://www.w3.org/2000/svg">
<path d="M17.4236 0.262581C17.3459 0.184251 17.2535 0.12208 17.1516 0.0796525C17.0498 0.0372249 16.9406 0.0153809 16.8302 0.0153809C16.7199 0.0153809 16.6107 0.0372249 16.5089 0.0796525C16.407 0.12208 16.3146 0.184251 16.2369 0.262581L10.9803 5.52752L7.39515 1.93399C7.31746 1.85566 7.22503 1.79349 7.12319 1.75106C7.02135 1.70863 6.91212 1.68679 6.8018 1.68679C6.69147 1.68679 6.58224 1.70863 6.4804 1.75106C6.37857 1.79349 6.28614 1.85566 6.20845 1.93399L1.19422 6.94821C1.11589 7.0259 1.05372 7.11833 1.01129 7.22017C0.968865 7.32201 0.947021 7.43124 0.947021 7.54156C0.947021 7.65189 0.968865 7.76112 1.01129 7.86296C1.05372 7.96479 1.11589 8.05722 1.19422 8.13491C1.27191 8.21324 1.36434 8.27541 1.46618 8.31784C1.56802 8.36027 1.67725 8.38211 1.78757 8.38211C1.89789 8.38211 2.00713 8.36027 2.10896 8.31784C2.2108 8.27541 2.30323 8.21324 2.38092 8.13491L6.8018 3.70568L10.387 7.29921C10.4647 7.37754 10.5571 7.43971 10.6589 7.48214C10.7608 7.52456 10.87 7.54641 10.9803 7.54641C11.0906 7.54641 11.1999 7.52456 11.3017 7.48214C11.4035 7.43971 11.496 7.37754 11.5737 7.29921L17.4236 1.44928C17.5019 1.37159 17.5641 1.27916 17.6065 1.17732C17.649 1.07548 17.6708 0.966253 17.6708 0.855931C17.6708 0.745608 17.649 0.636376 17.6065 0.534538C17.5641 0.4327 17.5019 0.34027 17.4236 0.262581V0.262581Z" fill="#1A8DC2"/>
</svg>
