<svg width="16" height="17" viewBox="0 0 16 17" fill="none" xmlns="http://www.w3.org/2000/svg">
<path d="M13.3229 0.229858H3.29447C2.62954 0.229858 1.99184 0.494 1.52167 0.964175C1.0515 1.43435 0.787354 2.07204 0.787354 2.73697V11.9297C0.787354 12.5946 1.0515 13.2323 1.52167 13.7025C1.99184 14.1727 2.62954 14.4368 3.29447 14.4368H5.45894L7.71534 16.7016C7.79343 16.779 7.88604 16.8403 7.98786 16.8819C8.08968 16.9235 8.19871 16.9446 8.30869 16.9439C8.50788 16.944 8.70052 16.8728 8.8519 16.7434L11.5429 14.4368H13.3229C13.9878 14.4368 14.6255 14.1727 15.0957 13.7025C15.5659 13.2323 15.83 12.5946 15.83 11.9297V2.73697C15.83 2.07204 15.5659 1.43435 15.0957 0.964175C14.6255 0.494 13.9878 0.229858 13.3229 0.229858ZM14.1586 11.9297C14.1586 12.1514 14.0706 12.3639 13.9138 12.5206C13.7571 12.6774 13.5446 12.7654 13.3229 12.7654H11.2337C11.0345 12.7654 10.8418 12.8365 10.6904 12.966L8.35048 14.9717L6.39493 13.0078C6.31684 12.9303 6.22423 12.869 6.12241 12.8275C6.02059 12.7859 5.91156 12.7648 5.80158 12.7654H3.29447C3.07282 12.7654 2.86026 12.6774 2.70353 12.5206C2.54681 12.3639 2.45876 12.1514 2.45876 11.9297V2.73697C2.45876 2.51533 2.54681 2.30276 2.70353 2.14604C2.86026 1.98931 3.07282 1.90127 3.29447 1.90127H13.3229C13.5446 1.90127 13.7571 1.98931 13.9138 2.14604C14.0706 2.30276 14.1586 2.51533 14.1586 2.73697V11.9297Z" fill="#F5F5F5"/>
</svg>
