<svg width="10" height="9" viewBox="0 0 10 9" fill="none" xmlns="http://www.w3.org/2000/svg">
<path d="M7.5 9C6.80833 9 6.21875 8.75625 5.73125 8.26875C5.24375 7.78125 5 7.19167 5 6.5C5 5.80833 5.24375 5.21875 5.73125 4.73125C6.21875 4.24375 6.80833 4 7.5 4C8.19167 4 8.78125 4.24375 9.26875 4.73125C9.75625 5.21875 10 5.80833 10 6.5C10 7.19167 9.75625 7.78125 9.26875 8.26875C8.78125 8.75625 8.19167 9 7.5 9ZM7.6 6.75L8.7375 5.6125L8.3875 5.2625L7.25 6.4L7.6 6.75ZM0 3.5V1C0 0.725 0.0979167 0.489583 0.29375 0.29375C0.489583 0.0979167 0.725 0 1 0H9C9.275 0 9.51042 0.0979167 9.70625 0.29375C9.90208 0.489583 10 0.725 10 1V4.05C9.66667 3.70833 9.28542 3.44792 8.85625 3.26875C8.42708 3.08958 7.975 3 7.5 3C7.18333 3 6.88125 3.03958 6.59375 3.11875C6.30625 3.19792 6.03333 3.30833 5.775 3.45L4.95 1.775C4.90833 1.69167 4.84583 1.62917 4.7625 1.5875C4.67917 1.54583 4.59167 1.525 4.5 1.525C4.40833 1.525 4.32083 1.54583 4.2375 1.5875C4.15417 1.62917 4.09167 1.69167 4.05 1.775L2.5 4.8875L1.9375 3.775C1.89583 3.69167 1.83542 3.625 1.75625 3.575C1.67708 3.525 1.59167 3.5 1.5 3.5H0ZM1 8C0.725 8 0.489583 7.90208 0.29375 7.70625C0.0979167 7.51042 0 7.275 0 7V4.5H1.1875L2.05 6.225C2.09167 6.31667 2.15208 6.38542 2.23125 6.43125C2.31042 6.47708 2.4 6.5 2.5 6.5C2.59167 6.5 2.67708 6.47708 2.75625 6.43125C2.83542 6.38542 2.89583 6.31667 2.9375 6.225L4.5 3.125L4.975 4.075C4.675 4.39167 4.4375 4.75625 4.2625 5.16875C4.0875 5.58125 4 6.025 4 6.5C4 6.75833 4.02708 7.01458 4.08125 7.26875C4.13542 7.52292 4.22083 7.76667 4.3375 8H1Z" fill="#67CCD1"/>
</svg>
