<svg width="16" height="15" viewBox="0 0 16 15" fill="none" xmlns="http://www.w3.org/2000/svg">
<path d="M2 14.75C1.5875 14.75 1.23438 14.6031 0.940625 14.3094C0.646875 14.0156 0.5 13.6625 0.5 13.25V5C0.5 4.5875 0.646875 4.23438 0.940625 3.94063C1.23438 3.64688 1.5875 3.5 2 3.5H5V2C5 1.5875 5.14688 1.23438 5.44063 0.940625C5.73438 0.646875 6.0875 0.5 6.5 0.5H9.5C9.9125 0.5 10.2656 0.646875 10.5594 0.940625C10.8531 1.23438 11 1.5875 11 2V3.5H14C14.4125 3.5 14.7656 3.64688 15.0594 3.94063C15.3531 4.23438 15.5 4.5875 15.5 5V13.25C15.5 13.6625 15.3531 14.0156 15.0594 14.3094C14.7656 14.6031 14.4125 14.75 14 14.75H2ZM6.5 3.5H9.5V2H6.5V3.5Z" fill="#7F7F7F"/>
</svg>
