<svg width="16" height="15" viewBox="0 0 16 15" fill="none" xmlns="http://www.w3.org/2000/svg">
<path d="M14.2971 15L9.07326 9.75C8.65867 10.0833 8.18189 10.3472 7.64293 10.5417C7.10396 10.7361 6.53044 10.8333 5.92238 10.8333C4.41604 10.8333 3.14117 10.309 2.09779 9.26042C1.05441 8.21181 0.532715 6.93056 0.532715 5.41667C0.532715 3.90278 1.05441 2.62153 2.09779 1.57292C3.14117 0.524306 4.41604 0 5.92238 0C7.42872 0 8.70358 0.524306 9.74697 1.57292C10.7904 2.62153 11.312 3.90278 11.312 5.41667C11.312 6.02778 11.2153 6.60417 11.0218 7.14583C10.8284 7.6875 10.5658 8.16667 10.2341 8.58333L15.4579 13.8333L14.2971 15ZM5.92238 9.16667C6.95885 9.16667 7.83986 8.80208 8.56539 8.07292C9.29092 7.34375 9.65369 6.45833 9.65369 5.41667C9.65369 4.375 9.29092 3.48958 8.56539 2.76042C7.83986 2.03125 6.95885 1.66667 5.92238 1.66667C4.88591 1.66667 4.0049 2.03125 3.27937 2.76042C2.55384 3.48958 2.19107 4.375 2.19107 5.41667C2.19107 6.45833 2.55384 7.34375 3.27937 8.07292C4.0049 8.80208 4.88591 9.16667 5.92238 9.16667Z" fill="#7F7F7F"/>
</svg>
