<svg width="22" height="22" viewBox="0 0 22 22" fill="none" xmlns="http://www.w3.org/2000/svg">
<path d="M11.8734 12.1185L9.85289 14.1302C9.77055 14.2119 9.7052 14.309 9.6606 14.4161C9.616 14.5231 9.59304 14.6379 9.59304 14.7539C9.59304 14.8699 9.616 14.9847 9.6606 15.0918C9.7052 15.1988 9.77055 15.296 9.85289 15.3776C9.93456 15.46 10.0317 15.5253 10.1388 15.5699C10.2458 15.6145 10.3606 15.6375 10.4766 15.6375C10.5926 15.6375 10.7074 15.6145 10.8145 15.5699C10.9215 15.5253 11.0187 15.46 11.1003 15.3776L14.6142 11.8637C14.6942 11.7802 14.7569 11.6817 14.7987 11.5738C14.8866 11.3599 14.8866 11.1201 14.7987 10.9062C14.7569 10.7983 14.6942 10.6998 14.6142 10.6163L11.1003 7.10237C11.0184 7.02046 10.9212 6.95549 10.8142 6.91116C10.7071 6.86683 10.5924 6.84402 10.4766 6.84402C10.3608 6.84402 10.2461 6.86683 10.1391 6.91116C10.032 6.95549 9.9348 7.02046 9.85289 7.10237C9.77098 7.18428 9.70601 7.28152 9.66168 7.38854C9.61735 7.49555 9.59454 7.61025 9.59454 7.72609C9.59454 7.84193 9.61735 7.95663 9.66168 8.06364C9.70601 8.17066 9.77098 8.2679 9.85289 8.34981L11.8734 10.3615H3.44879C3.2158 10.3615 2.99236 10.4541 2.82761 10.6188C2.66287 10.7836 2.57031 11.007 2.57031 11.24C2.57031 11.473 2.66287 11.6964 2.82761 11.8612C2.99236 12.0259 3.2158 12.1185 3.44879 12.1185H11.8734ZM11.3551 2.45523C9.71329 2.4479 8.1023 2.9008 6.70484 3.76257C5.30738 4.62434 4.17938 5.86048 3.44879 7.33078C3.34395 7.54046 3.32669 7.78321 3.40083 8.00562C3.47497 8.22803 3.63442 8.41188 3.8441 8.51672C4.05379 8.62156 4.29654 8.63882 4.51895 8.56468C4.74136 8.49054 4.92521 8.33109 5.03005 8.1214C5.58541 6.99987 6.4302 6.04699 7.47709 5.36122C8.52399 4.67545 9.73502 4.28168 10.985 4.22061C12.235 4.15953 13.4787 4.43336 14.5875 5.0138C15.6962 5.59424 16.6299 6.46023 17.2919 7.52228C17.954 8.58433 18.3204 9.80391 18.3534 11.055C18.3863 12.306 18.0846 13.5432 17.4794 14.6387C16.8742 15.7341 15.9874 16.648 14.9108 17.2861C13.8341 17.9241 12.6066 18.263 11.3551 18.2678C10.0452 18.2735 8.7602 17.9097 7.64764 17.2183C6.53508 16.5268 5.64002 15.5357 5.06519 14.3586C4.96034 14.1489 4.7765 13.9895 4.55409 13.9153C4.33168 13.8412 4.08893 13.8584 3.87924 13.9633C3.66956 14.0681 3.51011 14.252 3.43597 14.4744C3.36183 14.6968 3.37908 14.9395 3.48393 15.1492C4.18041 16.5508 5.23871 17.7409 6.54935 18.5964C7.85999 19.4519 9.37539 19.9417 10.9388 20.0151C12.5022 20.0885 14.0568 19.7429 15.4419 19.0141C16.827 18.2852 17.9921 17.1996 18.8169 15.8694C19.6417 14.5393 20.0962 13.0129 20.1333 11.4482C20.1704 9.88351 19.7888 8.33733 19.0279 6.96957C18.2671 5.60182 17.1547 4.46217 15.8057 3.6685C14.4567 2.87483 12.9202 2.45596 11.3551 2.45523Z" fill="#F5F5F5"/>
</svg>
