<svg width="4" height="12" viewBox="0 0 4 12" fill="none" xmlns="http://www.w3.org/2000/svg">
<path d="M2.007 11.2558C1.71081 11.2558 1.46226 11.1536 1.26134 10.9493C1.06042 10.745 0.959961 10.4994 0.959961 10.2126C0.959961 9.92641 1.06014 9.67712 1.26049 9.46469C1.46085 9.25227 1.70516 9.14606 1.99344 9.14606C2.28963 9.14606 2.53818 9.25193 2.7391 9.46368C2.94002 9.67543 3.04048 9.92415 3.04048 10.2099C3.04048 10.4955 2.94054 10.7413 2.74067 10.9471C2.5408 11.1529 2.29625 11.2558 2.007 11.2558ZM2.007 7.04115C1.71081 7.04115 1.46226 6.94098 1.26134 6.74062C1.06042 6.54027 0.959961 6.29595 0.959961 6.00768C0.959961 5.71149 1.06014 5.46294 1.26049 5.26202C1.46085 5.0611 1.70516 4.96064 1.99344 4.96064C2.28963 4.96064 2.53818 5.06057 2.7391 5.26044C2.94002 5.46031 3.04048 5.70487 3.04048 5.99412C3.04048 6.2903 2.94054 6.53886 2.74067 6.73978C2.5408 6.9407 2.29625 7.04115 2.007 7.04115ZM2.007 2.85574C1.71081 2.85574 1.46226 2.75128 1.26134 2.54236C1.06042 2.33344 0.959961 2.08228 0.959961 1.78889C0.959961 1.49551 1.06014 1.24673 1.26049 1.04256C1.46085 0.838406 1.70516 0.736328 1.99344 0.736328C2.28963 0.736328 2.53818 0.838684 2.7391 1.04339C2.94002 1.24812 3.04048 1.49616 3.04048 1.78752C3.04048 2.08289 2.94054 2.33477 2.74067 2.54316C2.5408 2.75155 2.29625 2.85574 2.007 2.85574Z" fill="#7F7F7F"/>
</svg>
