<svg width="8" height="10" viewBox="0 0 8 10" fill="none" xmlns="http://www.w3.org/2000/svg">
<path d="M3.99993 2.5C4.1416 2.5 4.26035 2.45208 4.35618 2.35625C4.45201 2.26042 4.49993 2.14167 4.49993 2C4.49993 1.85833 4.45201 1.73958 4.35618 1.64375C4.26035 1.54792 4.1416 1.5 3.99993 1.5C3.85826 1.5 3.73951 1.54792 3.64368 1.64375C3.54785 1.73958 3.49993 1.85833 3.49993 2C3.49993 2.14167 3.54785 2.26042 3.64368 2.35625C3.73951 2.45208 3.85826 2.5 3.99993 2.5ZM5.41243 2.5H6.28743C6.53743 2.5 6.7541 2.58333 6.93743 2.75C7.12076 2.91667 7.23326 3.12083 7.27493 3.3625L7.98743 8.3625C8.0291 8.6625 7.95201 8.92708 7.75618 9.15625C7.56035 9.38542 7.30826 9.5 6.99993 9.5H0.99993C0.691596 9.5 0.439513 9.38542 0.24368 9.15625C0.0478464 8.92708 -0.0292369 8.6625 0.0124298 8.3625L0.72493 3.3625C0.766596 3.12083 0.879096 2.91667 1.06243 2.75C1.24576 2.58333 1.46243 2.5 1.71243 2.5H2.58743C2.56243 2.41667 2.5416 2.33542 2.52493 2.25625C2.50826 2.17708 2.49993 2.09167 2.49993 2C2.49993 1.58333 2.64576 1.22917 2.93743 0.9375C3.2291 0.645833 3.58326 0.5 3.99993 0.5C4.4166 0.5 4.77076 0.645833 5.06243 0.9375C5.3541 1.22917 5.49993 1.58333 5.49993 2C5.49993 2.09167 5.4916 2.17708 5.47493 2.25625C5.45826 2.33542 5.43743 2.41667 5.41243 2.5Z" fill="#67CCD1"/>
</svg>
