<svg width="13" height="18" viewBox="0 0 13 18" fill="none" xmlns="http://www.w3.org/2000/svg">
<path d="M6.5 18C5.21548 18 4.12054 17.5613 3.21518 16.6838C2.30982 15.8063 1.85714 14.745 1.85714 13.5V5.4C1.34643 5.4 0.909226 5.22375 0.545536 4.87125C0.181845 4.51875 0 4.095 0 3.6V1.8C0 1.305 0.181845 0.88125 0.545536 0.52875C0.909226 0.17625 1.34643 0 1.85714 0H11.1429C11.6536 0 12.0908 0.17625 12.4545 0.52875C12.8182 0.88125 13 1.305 13 1.8V3.6C13 4.095 12.8182 4.51875 12.4545 4.87125C12.0908 5.22375 11.6536 5.4 11.1429 5.4V13.5C11.1429 14.745 10.6902 15.8063 9.78482 16.6838C8.87946 17.5613 7.78452 18 6.5 18ZM1.85714 3.6H11.1429V1.8H1.85714V3.6ZM6.5 16.2C7.27381 16.2 7.93155 15.9375 8.47321 15.4125C9.01488 14.8875 9.28571 14.25 9.28571 13.5H6.5V11.7H9.28571V9.9H6.5V8.1H9.28571V5.4H3.71429V13.5C3.71429 14.25 3.98512 14.8875 4.52679 15.4125C5.06845 15.9375 5.72619 16.2 6.5 16.2Z" fill="#14367B"/>
</svg>
