<svg width="21" height="22" viewBox="0 0 21 22" fill="none" xmlns="http://www.w3.org/2000/svg">
<path d="M17.404 7.26111C17.3993 7.23908 17.3993 7.21629 17.404 7.19425C17.4 7.17496 17.4 7.15504 17.404 7.13575V7.06054L17.3539 6.93518C17.3335 6.90098 17.3082 6.87 17.2787 6.84326L17.2035 6.7764H17.1617L13.869 4.6955L10.7602 2.77338C10.6883 2.71632 10.606 2.67375 10.5178 2.64802H10.451C10.3763 2.63555 10.3 2.63555 10.2253 2.64802H10.1418C10.0447 2.66949 9.95162 2.70616 9.86598 2.75666L3.62327 6.64269L3.54806 6.70119L3.47285 6.76804L3.38928 6.82654L3.34749 6.87669L3.29735 7.00204V7.07725V7.1274C3.28923 7.18281 3.28923 7.23912 3.29735 7.29454V14.5902C3.29706 14.7323 3.33298 14.872 3.4017 14.9963C3.47043 15.1206 3.56969 15.2253 3.69013 15.3006L9.95791 19.1782L10.0833 19.2284H10.1501C10.2915 19.2732 10.4433 19.2732 10.5847 19.2284H10.6515L10.7769 19.1782L16.9945 15.3591C17.115 15.2838 17.2142 15.1791 17.283 15.0548C17.3517 14.9305 17.3876 14.7908 17.3873 14.6487V7.35304C17.3873 7.35304 17.404 7.29454 17.404 7.26111ZM10.3089 4.4615L11.7965 5.38078L7.12487 8.27231L5.62896 7.35304L10.3089 4.4615ZM9.4732 16.9971L4.87683 14.1891V8.84895L9.4732 11.6903V16.9971ZM10.3089 10.2195L8.71271 9.25844L13.3843 6.35855L14.9888 7.35304L10.3089 10.2195ZM15.741 14.164L11.1446 17.0221V11.6903L15.741 8.84895V14.164Z" fill="#1A8DC2"/>
</svg>
