<svg width="21" height="21" viewBox="0 0 21 21" fill="none" xmlns="http://www.w3.org/2000/svg">
<path d="M15.3231 11.7666V9.10903C15.3219 7.92494 14.9017 6.77948 14.137 5.87551C13.3722 4.97153 12.3122 4.36737 11.1446 4.17002V3.25911C11.1446 3.03746 11.0566 2.8249 10.8999 2.66817C10.7431 2.51145 10.5306 2.4234 10.3089 2.4234C10.0873 2.4234 9.87472 2.51145 9.71799 2.66817C9.56127 2.8249 9.47322 3.03746 9.47322 3.25911V4.17002C8.30569 4.36737 7.24567 4.97153 6.48089 5.87551C5.7161 6.77948 5.2959 7.92494 5.2947 9.10903V11.7666C4.80702 11.939 4.38462 12.258 4.08538 12.6799C3.78615 13.1019 3.62474 13.606 3.62329 14.1233V15.7947C3.62329 16.0163 3.71134 16.2289 3.86806 16.3856C4.02479 16.5423 4.23735 16.6304 4.459 16.6304H7.08311C7.27555 17.3385 7.69568 17.9637 8.27866 18.4094C8.86164 18.8551 9.57509 19.0965 10.3089 19.0965C11.0428 19.0965 11.7562 18.8551 12.3392 18.4094C12.9222 17.9637 13.3423 17.3385 13.5347 16.6304H16.1589C16.3805 16.6304 16.5931 16.5423 16.7498 16.3856C16.9065 16.2289 16.9946 16.0163 16.9946 15.7947V14.1233C16.9931 13.606 16.8317 13.1019 16.5325 12.6799C16.2332 12.258 15.8108 11.939 15.3231 11.7666ZM6.96611 9.10903C6.96611 8.22246 7.3183 7.37221 7.9452 6.74531C8.57209 6.11841 9.42235 5.76622 10.3089 5.76622C11.1955 5.76622 12.0458 6.11841 12.6727 6.74531C13.2996 7.37221 13.6517 8.22246 13.6517 9.10903V11.6161H6.96611V9.10903ZM10.3089 17.4661C10.0172 17.4643 9.7311 17.3863 9.47893 17.2396C9.22676 17.093 9.01735 16.883 8.87151 16.6304H11.7463C11.6005 16.883 11.3911 17.093 11.1389 17.2396C10.8868 17.3863 10.6006 17.4643 10.3089 17.4661ZM15.3231 14.959H5.2947V14.1233C5.2947 13.9016 5.38275 13.6891 5.53947 13.5323C5.6962 13.3756 5.90876 13.2876 6.1304 13.2876H14.4874C14.7091 13.2876 14.9217 13.3756 15.0784 13.5323C15.2351 13.6891 15.3231 13.9016 15.3231 14.1233V14.959Z" fill="#F5F5F5"/>
</svg>
