<svg width="21" height="21" viewBox="0 0 21 21" fill="none" xmlns="http://www.w3.org/2000/svg">
<path d="M16.9108 11.5248C16.7768 11.3723 16.7029 11.1762 16.7029 10.9732C16.7029 10.7702 16.7768 10.5742 16.9108 10.4217L17.9805 9.21825C18.0983 9.08677 18.1715 8.92133 18.1896 8.74567C18.2076 8.57 18.1695 8.39315 18.0808 8.24048L16.4094 5.34894C16.3215 5.19644 16.1878 5.07556 16.0272 5.00353C15.8667 4.9315 15.6874 4.912 15.5151 4.9478L13.944 5.26537C13.7441 5.30668 13.536 5.27338 13.3589 5.17177C13.1819 5.07016 13.0481 4.90726 12.983 4.71381L12.4732 3.18447C12.4171 3.01848 12.3103 2.87431 12.1678 2.77233C12.0254 2.67036 11.8545 2.61574 11.6793 2.61619H8.33645C8.15421 2.60668 7.97387 2.65708 7.82296 2.75969C7.67206 2.8623 7.55889 3.01149 7.50074 3.18447L7.03275 4.71381C6.96757 4.90726 6.83383 5.07016 6.65678 5.17177C6.47973 5.27338 6.27161 5.30668 6.07169 5.26537L4.45878 4.9478C4.29544 4.92472 4.12893 4.9505 3.98021 5.02188C3.8315 5.09326 3.70723 5.20706 3.62308 5.34894L1.95167 8.24048C1.86071 8.39145 1.81981 8.56731 1.83482 8.74292C1.84983 8.91853 1.91998 9.08491 2.03524 9.21825L3.09658 10.4217C3.23056 10.5742 3.30445 10.7702 3.30445 10.9732C3.30445 11.1762 3.23056 11.3723 3.09658 11.5248L2.03524 12.7282C1.91998 12.8616 1.84983 13.0279 1.83482 13.2035C1.81981 13.3791 1.86071 13.555 1.95167 13.706L3.62308 16.5975C3.71091 16.75 3.84464 16.8709 4.00521 16.9429C4.16577 17.015 4.34498 17.0345 4.51728 16.9987L6.0884 16.6811C6.28832 16.6398 6.49644 16.6731 6.67349 16.7747C6.85054 16.8763 6.98428 17.0392 7.04946 17.2327L7.55924 18.762C7.61739 18.935 7.73056 19.0842 7.88146 19.1868C8.03237 19.2894 8.21271 19.3398 8.39495 19.3303H11.7378C11.913 19.3307 12.0839 19.2761 12.2263 19.1741C12.3688 19.0722 12.4756 18.928 12.5317 18.762L13.0415 17.2327C13.1066 17.0392 13.2404 16.8763 13.4174 16.7747C13.5945 16.6731 13.8026 16.6398 14.0025 16.6811L15.5736 16.9987C15.7459 17.0345 15.9252 17.015 16.0857 16.9429C16.2463 16.8709 16.38 16.75 16.4679 16.5975L18.1393 13.706C18.228 13.5533 18.2661 13.3765 18.2481 13.2008C18.23 13.0251 18.1568 12.8597 18.039 12.7282L16.9108 11.5248ZM15.6656 12.6446L16.3341 13.3968L15.2644 15.252L14.2783 15.0515C13.6764 14.9284 13.0503 15.0307 12.5188 15.3388C11.9873 15.6469 11.5875 16.1394 11.3951 16.7229L11.0776 17.6589H8.93816L8.6373 16.7062C8.44497 16.1227 8.04511 15.6302 7.51362 15.3221C6.98213 15.014 6.35601 14.9117 5.75412 15.0348L4.76799 15.2353L3.68158 13.3884L4.35014 12.6363C4.76127 12.1766 4.98856 11.5816 4.98856 10.9649C4.98856 10.3482 4.76127 9.75312 4.35014 9.29346L3.68158 8.54133L4.75128 6.70278L5.73741 6.90335C6.3393 7.02638 6.96542 6.92414 7.4969 6.61603C8.02839 6.30792 8.42825 5.8154 8.62059 5.23194L8.93816 4.2876H11.0776L11.3951 5.2403C11.5875 5.82375 11.9873 6.31628 12.5188 6.62439C13.0503 6.9325 13.6764 7.03474 14.2783 6.91171L15.2644 6.71114L16.3341 8.5664L15.6656 9.31854C15.2591 9.77714 15.0346 10.3687 15.0346 10.9816C15.0346 11.5944 15.2591 12.186 15.6656 12.6446ZM10.0079 7.63041C9.34671 7.63041 8.70041 7.82647 8.15069 8.19378C7.60096 8.56109 7.17251 9.08317 6.9195 9.69399C6.66649 10.3048 6.60029 10.9769 6.72927 11.6254C6.85825 12.2738 7.17663 12.8695 7.64413 13.337C8.11163 13.8045 8.70726 14.1228 9.35571 14.2518C10.0041 14.3808 10.6763 14.3146 11.2871 14.0616C11.8979 13.8086 12.42 13.3801 12.7873 12.8304C13.1546 12.2807 13.3507 11.6344 13.3507 10.9732C13.3507 10.0867 12.9985 9.2364 12.3716 8.6095C11.7447 7.9826 10.8944 7.63041 10.0079 7.63041ZM10.0079 12.6446C9.67728 12.6446 9.35413 12.5466 9.07927 12.363C8.80441 12.1793 8.59018 11.9183 8.46368 11.6128C8.33717 11.3074 8.30407 10.9714 8.36856 10.6472C8.43306 10.3229 8.59224 10.0251 8.82599 9.79137C9.05974 9.55761 9.35756 9.39843 9.68178 9.33394C10.006 9.26944 10.3421 9.30254 10.6475 9.42905C10.9529 9.55555 11.2139 9.76978 11.3976 10.0446C11.5812 10.3195 11.6793 10.6427 11.6793 10.9732C11.6793 11.4165 11.5032 11.8416 11.1897 12.1551C10.8763 12.4685 10.4511 12.6446 10.0079 12.6446Z" fill="#1A8DC2"/>
</svg>
